<?xml version="1.0" encoding="UTF-8"?>
<!DOCTYPE svg PUBLIC "-//W3C//DTD SVG 1.1//EN" "http://www.w3.org/Graphics/SVG/1.1/DTD/svg11.dtd">
<svg xmlns="http://www.w3.org/2000/svg" version="1.1" width="766px" height="345px" style="shape-rendering:geometricPrecision; text-rendering:geometricPrecision; image-rendering:optimizeQuality; fill-rule:evenodd; clip-rule:evenodd" xmlns:xlink="http://www.w3.org/1999/xlink">
<g><path style="opacity:1" fill="#209bb5" d="M 119.5,-0.5 C 122.833,-0.5 126.167,-0.5 129.5,-0.5C 160.162,1.24816 185.662,13.5815 206,36.5C 218.747,53.6776 225.581,73.011 226.5,94.5C 226.5,96.8333 226.5,99.1667 226.5,101.5C 225.5,101.5 224.5,101.5 223.5,101.5C 214.491,101.626 205.491,101.959 196.5,102.5C 188.542,55.7079 161.208,27.8745 114.5,19C 72.034,17.1266 44.8673,36.6266 33,77.5C 27.4821,99.1139 26.8154,120.781 31,142.5C 32.5835,148.254 34.7502,153.754 37.5,159C 26.152,159.832 14.8187,159.666 3.5,158.5C -6.34582,97.701 14.6542,50.8677 66.5,18C 82.9137,7.91917 100.58,1.7525 119.5,-0.5 Z"/></g>
<g><path style="opacity:0.255" fill="#b7e1e8" d="M 226.5,94.5 C 227.473,96.9479 227.806,99.6146 227.5,102.5C 225.901,102.768 224.568,102.434 223.5,101.5C 224.5,101.5 225.5,101.5 226.5,101.5C 226.5,99.1667 226.5,96.8333 226.5,94.5 Z"/></g>
<g><path style="opacity:0.659" fill="#ffd7be" d="M 130.5,107.5 C 129.791,106.596 128.791,106.263 127.5,106.5C 129.608,105.225 131.942,104.725 134.5,105C 133.529,106.481 132.196,107.315 130.5,107.5 Z"/></g>
<g><path style="opacity:0.999" fill="#ff9757" d="M 127.5,106.5 C 128.791,106.263 129.791,106.596 130.5,107.5C 126.061,111.228 121.061,114.228 115.5,116.5C 114.73,130.852 113.73,145.185 112.5,159.5C 111.833,159.833 111.167,160.167 110.5,160.5C 103.945,159.68 97.4447,159.347 91,159.5C 90.5001,146.838 90.3334,134.171 90.5,121.5C 85.1554,121.687 79.8221,122.02 74.5,122.5C 73.1266,122.657 71.7932,122.49 70.5,122C 71.056,121.617 71.3893,121.117 71.5,120.5C 72.2623,118.738 73.5956,117.738 75.5,117.5C 77.0269,117.573 78.0269,116.906 78.5,115.5C 83.8829,111.754 89.8829,109.254 96.5,108C 106.85,107.673 117.183,107.173 127.5,106.5 Z"/></g>
<g><path style="opacity:0.885" fill="#fefffe" d="M 361.5,106.5 C 363.5,106.5 365.5,106.5 367.5,106.5C 370.46,128.796 374.627,150.796 380,172.5C 383.096,163.801 387.596,155.968 393.5,149C 398.729,143.941 403.229,144.441 407,150.5C 408.469,170.24 410.302,189.907 412.5,209.5C 406.017,208.855 402.183,205.189 401,198.5C 401.875,184.461 401.209,170.461 399,156.5C 398.692,155.692 398.192,155.025 397.5,154.5C 392.716,158.309 389.883,163.309 389,169.5C 385.465,185.306 381.465,200.972 377,216.5C 374.46,217.876 372.46,217.21 371,214.5C 371.734,200.831 371.401,187.164 370,173.5C 366.837,151.197 364.004,128.863 361.5,106.5 Z"/></g>
<g><path style="opacity:0.999" fill="#ff9554" d="M 259.5,125.5 C 259.427,127.027 260.094,128.027 261.5,128.5C 265.955,134.298 267.955,140.965 267.5,148.5C 266.659,150.379 266.325,152.379 266.5,154.5C 266.849,157.045 266.016,159.045 264,160.5C 256.86,159.424 249.693,159.257 242.5,160C 241.918,153.373 240.585,146.873 238.5,140.5C 238.446,138.368 237.446,137.035 235.5,136.5C 230.767,131.797 225.1,128.63 218.5,127C 210.645,125.268 202.978,124.101 195.5,123.5C 193.525,133.446 192.858,143.779 193.5,154.5C 193.819,156.75 193.319,158.75 192,160.5C 185.283,159.886 178.45,159.719 171.5,160C 170.676,148.564 170.509,137.064 171,125.5C 163.562,124.682 156.062,124.515 148.5,125C 147.167,124.333 147.167,123.667 148.5,123C 149.745,122.209 151.078,121.709 152.5,121.5C 154.027,121.573 155.027,120.906 155.5,119.5C 161.09,115.434 167.257,112.434 174,110.5C 190.491,111.322 206.991,111.489 223.5,111C 233.78,111.521 243.447,114.188 252.5,119C 255.288,120.719 257.621,122.885 259.5,125.5 Z"/></g>
<g><path style="opacity:0.876" fill="#fefffe" d="M 346.5,115.5 C 349.167,115.5 351.833,115.5 354.5,115.5C 354.607,117.903 353.607,119.736 351.5,121C 344.383,125.783 337.55,130.949 331,136.5C 329.304,138.56 328.137,140.893 327.5,143.5C 334.569,154.629 341.403,165.963 348,177.5C 354.371,196.26 348.205,209.093 329.5,216C 316.619,220.154 305.452,217.321 296,207.5C 289.008,197.324 288.841,187.157 295.5,177C 296.996,176.493 298.163,176.993 299,178.5C 298.926,186.011 299.926,193.344 302,200.5C 308.356,209.397 316.856,212.563 327.5,210C 341.184,204.976 345.684,195.476 341,181.5C 334.913,172.325 328.579,163.325 322,154.5C 319.323,150.148 317.489,145.482 316.5,140.5C 316.743,136.849 318.41,134.016 321.5,132C 329.217,125.428 337.551,119.928 346.5,115.5 Z"/></g>
<g><path style="opacity:0.812" fill="#ffc8a6" d="M 78.5,115.5 C 78.0269,116.906 77.0269,117.573 75.5,117.5C 75.9731,116.094 76.9731,115.427 78.5,115.5 Z"/></g>
<g><path style="opacity:0.725" fill="#ffcdae" d="M 155.5,119.5 C 155.027,120.906 154.027,121.573 152.5,121.5C 152.973,120.094 153.973,119.427 155.5,119.5 Z"/></g>
<g><path style="opacity:0.51" fill="#ffdac3" d="M 71.5,120.5 C 71.3893,121.117 71.056,121.617 70.5,122C 71.7932,122.49 73.1266,122.657 74.5,122.5C 72.3718,123.629 70.0385,123.796 67.5,123C 68.4709,121.519 69.8042,120.685 71.5,120.5 Z"/></g>
<g><path style="opacity:0.866" fill="#fefffe" d="M 747.5,125.5 C 749.833,125.5 752.167,125.5 754.5,125.5C 754.245,128.016 753.411,130.35 752,132.5C 745.5,141 739,149.5 732.5,158C 741.631,165.462 750.464,173.295 759,181.5C 764.989,189.461 764.989,197.461 759,205.5C 754.452,211.519 748.619,215.685 741.5,218C 726.048,218.526 719.881,211.026 723,195.5C 724.011,194.663 725.178,194.33 726.5,194.5C 727.122,208.958 734.122,213.458 747.5,208C 754.923,203.658 757.09,197.492 754,189.5C 747.128,182.959 739.961,176.793 732.5,171C 728.73,167.903 725.73,164.236 723.5,160C 730.926,148.079 738.926,136.579 747.5,125.5 Z"/></g>
<g><path style="opacity:0.573" fill="#ffcfaf" d="M 259.5,125.5 C 260.906,125.973 261.573,126.973 261.5,128.5C 260.094,128.027 259.427,127.027 259.5,125.5 Z"/></g>
<g><path style="opacity:0.877" fill="#fefffe" d="M 637.5,133.5 C 638.93,133.421 640.264,133.754 641.5,134.5C 642.477,142.428 640.643,149.761 636,156.5C 632.081,162.67 628.414,169.003 625,175.5C 621.387,185.339 621.72,195.005 626,204.5C 630.7,209.373 636.2,210.54 642.5,208C 653.24,201.927 662.074,193.761 669,183.5C 669.925,171.765 671.425,160.098 673.5,148.5C 674.478,148.977 675.311,149.643 676,150.5C 686.96,141.469 699.46,137.803 713.5,139.5C 713.945,142.365 713.278,144.865 711.5,147C 701.568,145.991 692.235,147.991 683.5,153C 681.383,154.731 679.883,156.898 679,159.5C 678.667,178.833 678.333,198.167 678,217.5C 676,221.5 674,221.5 672,217.5C 670.89,209.518 669.89,201.518 669,193.5C 661.648,203.523 652.482,211.356 641.5,217C 636.295,219.302 631.295,218.969 626.5,216C 619.598,210.368 615.098,203.202 613,194.5C 609.343,197.373 605.51,197.873 601.5,196C 604.583,190.912 608.417,186.412 613,182.5C 614.838,173.948 615.838,165.282 616,156.5C 620.271,146.065 627.437,138.398 637.5,133.5 Z M 633.5,142.5 C 634.043,142.56 634.376,142.893 634.5,143.5C 631.491,152.52 627.657,161.186 623,169.5C 621.327,158.331 624.827,149.331 633.5,142.5 Z"/></g>
<g><path style="opacity:1" fill="#2b9eb7" d="M 203.5,133.5 C 210.706,133.505 217.372,135.339 223.5,139C 221.082,145.918 218.082,152.585 214.5,159C 210.514,159.499 206.514,159.666 202.5,159.5C 203.34,150.862 203.673,142.195 203.5,133.5 Z"/></g>
<g><path style="opacity:0.495" fill="#ffcbaa" d="M 195.5,123.5 C 194.855,133.932 194.189,144.265 193.5,154.5C 192.858,143.779 193.525,133.446 195.5,123.5 Z"/></g>
<g><path style="opacity:0.945" fill="#ffc8a5" d="M 235.5,136.5 C 237.446,137.035 238.446,138.368 238.5,140.5C 237.026,139.564 236.026,138.23 235.5,136.5 Z"/></g>
<g><path style="opacity:0.888" fill="#fefffe" d="M 416.5,137.5 C 436.073,135.241 448.573,143.575 454,162.5C 458.493,180.144 456.826,197.144 449,213.5C 442.764,221.475 436.43,221.475 430,213.5C 426.153,207.784 424.32,201.45 424.5,194.5C 425.75,182.416 427.583,170.416 430,158.5C 430.667,154.833 430.667,151.167 430,147.5C 428.326,142.528 424.993,141.195 420,143.5C 415.949,142.982 414.783,140.982 416.5,137.5 Z M 437.5,154.5 C 447.647,169.093 450.814,185.093 447,202.5C 445.589,205.997 443.256,208.664 440,210.5C 435.93,206.978 433.764,202.478 433.5,197C 435.329,182.877 436.662,168.711 437.5,154.5 Z"/></g>
<g><path style="opacity:0.855" fill="#fefffe" d="M 514.5,140.5 C 523.811,140.417 528.144,145.083 527.5,154.5C 526.186,169.944 521.019,183.944 512,196.5C 509.079,200.092 505.579,202.925 501.5,205C 499.359,205.884 497.693,205.384 496.5,203.5C 501.667,193.833 506.833,184.167 512,174.5C 515.588,167.402 517.755,159.902 518.5,152C 518.167,150.167 517.833,148.333 517.5,146.5C 516.833,146.167 516.167,145.833 515.5,145.5C 499.334,149.83 487.501,159.497 480,174.5C 465.958,205.493 462.958,237.493 471,270.5C 472.598,273.925 474.598,274.258 477,271.5C 479.093,266.372 480.426,261.038 481,255.5C 483.055,233.154 482.889,210.821 480.5,188.5C 480.607,185.433 481.107,182.433 482,179.5C 484.488,178.588 486.155,179.588 487,182.5C 489.209,203.786 489.876,225.12 489,246.5C 487.975,255.291 486.308,263.958 484,272.5C 478.221,284.795 471.555,285.462 464,274.5C 457.636,246.376 458.303,218.376 466,190.5C 472.277,171.563 483.777,156.73 500.5,146C 505.159,143.842 509.825,142.009 514.5,140.5 Z"/></g>
<g><path style="opacity:0.874" fill="#fefffe" d="M 585.5,140.5 C 594.358,140.526 598.691,145.026 598.5,154C 596.599,170.369 590.765,185.202 581,198.5C 577.506,202.839 573.006,205.172 567.5,205.5C 567.343,204.127 567.51,202.793 568,201.5C 574.876,189.081 581.209,176.414 587,163.5C 589.203,158.069 589.703,152.569 588.5,147C 587.5,146.5 586.5,146 585.5,145.5C 572.032,149.139 561.532,156.806 554,168.5C 539.296,196.41 533.963,226.077 538,257.5C 538.54,263.183 540.374,268.35 543.5,273C 545.367,273.711 546.867,273.211 548,271.5C 551.738,256.744 553.571,241.744 553.5,226.5C 552.471,211.172 551.971,195.839 552,180.5C 554.082,177.85 555.749,178.184 557,181.5C 559.407,204.105 560.074,226.771 559,249.5C 558.06,259.207 555.726,268.54 552,277.5C 545.501,284.537 539.834,283.87 535,275.5C 533.198,270.625 531.865,265.625 531,260.5C 530.333,246.5 530.333,232.5 531,218.5C 532.488,188.346 545.321,164.513 569.5,147C 574.744,144.315 580.077,142.148 585.5,140.5 Z"/></g>
<g><path style="opacity:0.643" fill="#ffd0b2" d="M 267.5,148.5 C 268.043,148.56 268.376,148.893 268.5,149.5C 267.972,151.336 267.306,153.003 266.5,154.5C 266.325,152.379 266.659,150.379 267.5,148.5 Z"/></g>
<g><path style="opacity:0.378" fill="#cccccc" d="M 30.5,168.5 C 32.6282,167.371 34.9615,167.204 37.5,168C 36.1772,168.816 35.5106,169.983 35.5,171.5C 34.596,170.791 34.2627,169.791 34.5,168.5C 33.1667,168.5 31.8333,168.5 30.5,168.5 Z"/></g>
<g><path style="opacity:0.416" fill="#c8c8c8" d="M 44.5,168.5 C 46.2884,167.378 48.2884,167.211 50.5,168C 49.6634,169.011 49.33,170.178 49.5,171.5C 48.596,170.791 48.2627,169.791 48.5,168.5C 47.1667,168.5 45.8333,168.5 44.5,168.5 Z"/></g>
<g><path style="opacity:0.575" fill="#b9b9b9" d="M 67.5,168.5 C 71.3507,167.191 75.3507,167.191 79.5,168.5C 79.0431,169.298 78.3764,169.631 77.5,169.5C 74.3752,168.521 71.0419,168.187 67.5,168.5 Z"/></g>
<g><path style="opacity:0.72" fill="#b9b9b9" d="M 134.5,172.5 C 134.5,171.167 134.5,169.833 134.5,168.5C 133.209,168.263 132.209,168.596 131.5,169.5C 129.621,169.607 129.288,169.107 130.5,168C 132.764,167.764 134.931,167.264 137,166.5C 136.471,168.567 135.637,170.567 134.5,172.5 Z"/></g>
<g><path style="opacity:0.667" fill="#a8a8a8" d="M 185.5,168.5 C 191.346,167.183 197.346,167.183 203.5,168.5C 203.043,169.298 202.376,169.631 201.5,169.5C 196.36,168.512 191.026,168.179 185.5,168.5 Z"/></g>
<g><path style="opacity:0.522" fill="#bcbcbc" d="M 253.5,168.5 C 257.646,167.353 261.98,167.186 266.5,168C 265.956,168.717 265.289,169.217 264.5,169.5C 261.038,168.518 257.371,168.185 253.5,168.5 Z"/></g>
<g><path style="opacity:0.989" fill="#818181" d="M 25.5,182.5 C 24.1667,182.5 23.5,181.833 23.5,180.5C 23.7947,174.129 20.7947,170.462 14.5,169.5C 13.8333,169.5 13.5,169.167 13.5,168.5C 24.7487,166.431 28.7487,171.098 25.5,182.5 Z"/></g>
<g><path style="opacity:0.981" fill="#808080" d="M 30.5,168.5 C 31.8333,168.5 33.1667,168.5 34.5,168.5C 34.2627,169.791 34.596,170.791 35.5,171.5C 36.9636,175.019 37.9636,178.686 38.5,182.5C 38.7822,183.778 39.4489,184.778 40.5,185.5C 40.3146,187.196 39.4813,188.529 38,189.5C 35.526,183.244 33.3594,176.911 31.5,170.5C 31.1667,169.833 30.8333,169.167 30.5,168.5 Z"/></g>
<g><path style="opacity:0.99" fill="#757575" d="M 43.5,168.5 C 43.8333,168.5 44.1667,168.5 44.5,168.5C 45.8333,168.5 47.1667,168.5 48.5,168.5C 48.2627,169.791 48.596,170.791 49.5,171.5C 51.2321,175.697 52.5655,180.031 53.5,184.5C 53.8333,185.167 54.1667,185.833 54.5,186.5C 54.5,186.833 54.5,187.167 54.5,187.5C 53.5,187.5 52.5,187.5 51.5,187.5C 49.5947,183.784 48.2613,179.784 47.5,175.5C 47.0023,172.674 45.6689,170.34 43.5,168.5 Z"/></g>
<g><path style="opacity:0.983" fill="#686868" d="M 66.5,168.5 C 66.8333,168.5 67.1667,168.5 67.5,168.5C 71.0419,168.187 74.3752,168.521 77.5,169.5C 76.3684,170.354 75.035,170.354 73.5,169.5C 72.5,169.5 71.5,169.5 70.5,169.5C 70.5,171.833 70.5,174.167 70.5,176.5C 71.5,177.167 72.5,177.833 73.5,178.5C 71.6614,180.653 70.6614,183.32 70.5,186.5C 71.8822,187.277 73.8822,187.944 76.5,188.5C 75.8333,188.5 75.1667,188.5 74.5,188.5C 71.9407,188.802 69.6074,188.468 67.5,187.5C 68.1647,184.686 68.498,181.686 68.5,178.5C 68.4094,174.902 67.7427,171.569 66.5,168.5 Z"/></g>
<g><path style="opacity:0.99" fill="#555555" d="M 87.5,185.5 C 86.9569,185.56 86.6236,185.893 86.5,186.5C 87.2427,187.182 87.9094,187.849 88.5,188.5C 88.1667,188.5 87.8333,188.5 87.5,188.5C 86.209,188.737 85.209,188.404 84.5,187.5C 84.5,187.167 84.5,186.833 84.5,186.5C 85.1666,180.654 85.8332,174.654 86.5,168.5C 87.4954,174.128 87.8288,179.794 87.5,185.5 Z"/></g>
<g><path style="opacity:0.996" fill="#6d6d6d" d="M 134.5,172.5 C 134.821,178.026 134.488,183.36 133.5,188.5C 132.075,190.031 131.409,189.698 131.5,187.5C 131.5,181.5 131.5,175.5 131.5,169.5C 132.209,168.596 133.209,168.263 134.5,168.5C 134.5,169.833 134.5,171.167 134.5,172.5 Z"/></g>
<g><path style="opacity:0.995" fill="#6e6e6e" d="M 152.5,175.5 C 151.833,174.167 151.167,172.833 150.5,171.5C 149.833,171.5 149.5,171.167 149.5,170.5C 148.432,169.566 147.099,169.232 145.5,169.5C 145.5,172.833 145.5,176.167 145.5,179.5C 145.5,181.5 145.5,183.5 145.5,185.5C 144.957,185.56 144.624,185.893 144.5,186.5C 145.602,187.176 146.602,187.842 147.5,188.5C 145.396,188.799 143.396,188.466 141.5,187.5C 141.624,186.893 141.957,186.56 142.5,186.5C 143.164,183.854 143.498,181.021 143.5,178C 143.403,174.567 142.737,171.4 141.5,168.5C 145.136,167.173 148.803,167.173 152.5,168.5C 155.068,170.998 155.068,173.331 152.5,175.5 Z"/></g>
<g><path style="opacity:0.993" fill="#555555" d="M 185.5,168.5 C 191.026,168.179 196.36,168.512 201.5,169.5C 199.167,169.5 196.833,169.5 194.5,169.5C 194.5,172.5 194.5,175.5 194.5,178.5C 194.5,180.833 194.5,183.167 194.5,185.5C 193.883,185.611 193.383,185.944 193,186.5C 192.501,180.843 192.334,175.176 192.5,169.5C 189.941,169.802 187.607,169.468 185.5,168.5 Z"/></g>
<g><path style="opacity:0.998" fill="#7d7d7d" d="M 225.5,181.5 C 224.883,181.611 224.383,181.944 224,182.5C 223.814,179.964 223.314,177.631 222.5,175.5C 220.99,172.067 218.324,170.067 214.5,169.5C 213.833,169.5 213.5,169.167 213.5,168.5C 224.004,166.673 228.004,171.006 225.5,181.5 Z"/></g>
<g><path style="opacity:0.991" fill="#7c7c7c" d="M 235.5,169.5 C 235.786,175.259 235.452,180.925 234.5,186.5C 234.5,187.167 234.5,187.833 234.5,188.5C 234.167,188.5 233.833,188.5 233.5,188.5C 232.508,188.672 231.842,188.338 231.5,187.5C 231.502,181.477 231.835,175.477 232.5,169.5C 233.5,168.167 234.5,168.167 235.5,169.5 Z"/></g>
<g><path style="opacity:0.964" fill="#5e5e5e" d="M 253.5,168.5 C 257.371,168.185 261.038,168.518 264.5,169.5C 263.368,170.354 262.035,170.354 260.5,169.5C 259.167,169.5 257.833,169.5 256.5,169.5C 256.198,172.059 256.532,174.393 257.5,176.5C 257.833,177.167 258.167,177.833 258.5,178.5C 258.167,178.5 257.833,178.5 257.5,178.5C 256.523,181.287 256.19,184.287 256.5,187.5C 258.735,187.205 260.735,187.539 262.5,188.5C 262.167,188.5 261.833,188.5 261.5,188.5C 259.167,188.5 256.833,188.5 254.5,188.5C 254.5,187.5 254.5,186.5 254.5,185.5C 254.958,182.606 254.291,180.106 252.5,178C 254.107,176.951 254.773,175.451 254.5,173.5C 254.634,171.708 254.301,170.042 253.5,168.5 Z"/></g>
<g><path style="opacity:0.145" fill="#e2e2e2" d="M 30.5,168.5 C 30.8333,169.167 31.1667,169.833 31.5,170.5C 29.5759,170.289 29.2426,169.623 30.5,168.5 Z"/></g>
<g><path style="opacity:0.078" fill="#f1f1f1" d="M 253.5,168.5 C 254.301,170.042 254.634,171.708 254.5,173.5C 253.694,172.132 252.694,170.799 251.5,169.5C 251.957,168.702 252.624,168.369 253.5,168.5 Z"/></g>
<g><path style="opacity:0.663" fill="#b7b7b7" d="M 13.5,168.5 C 13.5,169.167 13.8333,169.5 14.5,169.5C 9.96867,172.121 8.302,176.121 9.5,181.5C 8.68618,179.369 8.18618,177.036 8,174.5C 7.61742,175.056 7.11742,175.389 6.5,175.5C 7.83333,172.167 10.1667,169.833 13.5,168.5 Z"/></g>
<g><path style="opacity:0.138" fill="#d4d4d4" d="M 87.5,185.5 C 87.8288,179.794 87.4954,174.128 86.5,168.5C 85.8332,174.654 85.1666,180.654 84.5,186.5C 85.0922,180.369 84.4255,174.536 82.5,169C 84.9546,167.46 87.6213,167.126 90.5,168C 88.8849,173.728 87.8849,179.561 87.5,185.5 Z"/></g>
<g><path style="opacity:0.776" fill="#a2a2a2" d="M 172.5,174.5 C 171.833,173.5 171.167,172.5 170.5,171.5C 173.369,168.242 177.036,166.909 181.5,167.5C 181.539,169.359 180.706,170.692 179,171.5C 175.242,169.527 173.075,170.527 172.5,174.5 Z"/></g>
<g><path style="opacity:0.15" fill="#eaeaea" d="M 201.5,169.5 C 199.735,170.461 197.735,170.795 195.5,170.5C 195.806,173.385 195.473,176.052 194.5,178.5C 194.5,175.5 194.5,172.5 194.5,169.5C 196.833,169.5 199.167,169.5 201.5,169.5 Z"/></g>
<g><path style="opacity:0.765" fill="#b1b1b1" d="M 213.5,168.5 C 213.5,169.167 213.833,169.5 214.5,169.5C 213.737,170.268 212.737,170.768 211.5,171C 210.601,172.652 209.601,174.152 208.5,175.5C 208.672,174.508 208.338,173.842 207.5,173.5C 208.268,170.438 210.268,168.772 213.5,168.5 Z"/></g>
<g><path style="opacity:0.074" fill="#f1f1f1" d="M 73.5,169.5 C 71.8516,171.456 71.1849,173.789 71.5,176.5C 71.1667,176.5 70.8333,176.5 70.5,176.5C 70.5,174.167 70.5,171.833 70.5,169.5C 71.5,169.5 72.5,169.5 73.5,169.5 Z"/></g>
<g><path style="opacity:0.596" fill="#a6a6a6" d="M 260.5,169.5 C 259.791,170.404 258.791,170.737 257.5,170.5C 257.5,172.5 257.5,174.5 257.5,176.5C 257.5,174.5 257.5,172.5 257.5,170.5C 258.791,170.737 259.791,170.404 260.5,169.5 Z"/></g>
<g><path style="opacity:0.998" fill="#878787" d="M 105.5,185.5 C 104.833,184.5 104.167,183.5 103.5,182.5C 100.433,180.879 97.5995,178.879 95,176.5C 95.8098,168.996 99.9764,166.329 107.5,168.5C 106.169,172.022 104.336,172.355 102,169.5C 100.095,170.158 98.5955,171.325 97.5,173C 100.173,176.091 103.34,178.591 107,180.5C 107.599,182.535 107.099,184.201 105.5,185.5 Z"/></g>
<g><path style="opacity:0.988" fill="#828282" d="M 9.5,181.5 C 10.9143,183.918 12.9143,185.585 15.5,186.5C 16.1667,187.167 16.8333,187.833 17.5,188.5C 7.93115,189.581 4.26448,185.248 6.5,175.5C 7.11742,175.389 7.61742,175.056 8,174.5C 8.18618,177.036 8.68618,179.369 9.5,181.5 Z"/></g>
<g><path style="opacity:0.1" fill="#e3e3e3" d="M 149.5,170.5 C 148.5,170.5 147.5,170.5 146.5,170.5C 146.198,173.059 146.532,175.393 147.5,177.5C 147.5,177.833 147.5,178.167 147.5,178.5C 146.833,178.833 146.167,179.167 145.5,179.5C 145.5,176.167 145.5,172.833 145.5,169.5C 147.099,169.232 148.432,169.566 149.5,170.5 Z"/></g>
<g><path style="opacity:0.999" fill="#808080" d="M 207.5,173.5 C 208.338,173.842 208.672,174.508 208.5,175.5C 208.063,180.964 210.396,184.631 215.5,186.5C 216.167,187.167 216.833,187.833 217.5,188.5C 210.168,190.187 206.168,187.187 205.5,179.5C 205.361,177.117 206.028,175.117 207.5,173.5 Z"/></g>
<g><path style="opacity:0.678" fill="#a1a1a1" d="M 70.5,176.5 C 70.8333,176.5 71.1667,176.5 71.5,176.5C 73.8568,176.337 76.1902,176.503 78.5,177C 76.9669,178.808 75.3003,179.308 73.5,178.5C 72.5,177.833 71.5,177.167 70.5,176.5 Z"/></g>
<g><path style="opacity:0.69" fill="#9a9a9a" d="M 257.5,176.5 C 259.857,176.337 262.19,176.503 264.5,177C 263.667,177.833 262.833,178.667 262,179.5C 260.989,178.663 259.822,178.33 258.5,178.5C 258.167,177.833 257.833,177.167 257.5,176.5 Z"/></g>
<g><path style="opacity:0.659" fill="#a7a7a7" d="M 54.5,186.5 C 54.1667,185.833 53.8333,185.167 53.5,184.5C 55.6291,180.633 57.2957,176.466 58.5,172C 56.153,170.419 56.153,169.086 58.5,168C 60.5,167.333 62.5,167.333 64.5,168C 63.5,168.833 62.5,169.667 61.5,170.5C 59.6658,176.158 57.3324,181.491 54.5,186.5 Z"/></g>
<g><path style="opacity:0.997" fill="#7f7f7f" d="M 150.5,171.5 C 151.167,172.833 151.833,174.167 152.5,175.5C 154.372,177.045 155.372,179.045 155.5,181.5C 155.66,183.355 154.993,184.688 153.5,185.5C 152.662,185.158 152.328,184.492 152.5,183.5C 152.167,180.5 150.5,178.833 147.5,178.5C 147.5,178.167 147.5,177.833 147.5,177.5C 149.539,176.089 150.539,174.089 150.5,171.5 Z"/></g>
<g><path style="opacity:0.48" fill="#a6a6a6" d="M 66.5,168.5 C 67.7427,171.569 68.4094,174.902 68.5,178.5C 68.498,181.686 68.1647,184.686 67.5,187.5C 67.1335,182.851 67.1335,178.351 67.5,174C 67.2517,172.284 66.585,170.784 65.5,169.5C 65.6236,168.893 65.9569,168.56 66.5,168.5 Z"/></g>
<g><path style="opacity:0.998" fill="#898989" d="M 235.5,169.5 C 234.5,168.167 233.5,168.167 232.5,169.5C 231.425,170.562 230.425,170.562 229.5,169.5C 230.025,168.808 230.692,168.308 231.5,168C 235.167,167.333 238.833,167.333 242.5,168C 245.296,171.741 244.963,175.241 241.5,178.5C 244.097,182.269 247.431,185.102 251.5,187C 249.919,187.707 248.419,188.54 247,189.5C 242.993,186.659 239.493,183.325 236.5,179.5C 243.441,175.343 243.108,172.01 235.5,169.5 Z"/></g>
<g><path style="opacity:0.759" fill="#868686" d="M 123.5,181.5 C 119.629,181.815 115.962,181.482 112.5,180.5C 116.646,179.353 120.98,179.186 125.5,180C 124.956,180.717 124.289,181.217 123.5,181.5 Z"/></g>
<g><path style="opacity:0.576" fill="#a5a5a5" d="M 141.5,168.5 C 142.737,171.4 143.403,174.567 143.5,178C 143.498,181.021 143.164,183.854 142.5,186.5C 143.054,180.605 142.388,174.938 140.5,169.5C 140.624,168.893 140.957,168.56 141.5,168.5 Z"/></g>
<g><path style="opacity:0.351" fill="#cdcdcd" d="M 112.5,180.5 C 115.962,181.482 119.629,181.815 123.5,181.5C 119.649,182.809 115.649,182.809 111.5,181.5C 111.624,180.893 111.957,180.56 112.5,180.5 Z"/></g>
<g><path style="opacity:0.925" fill="#b2b2b2" d="M 222.5,175.5 C 223.314,177.631 223.814,179.964 224,182.5C 224.383,181.944 224.883,181.611 225.5,181.5C 224.095,185.236 221.429,187.569 217.5,188.5C 216.833,187.833 216.167,187.167 215.5,186.5C 221.543,185.448 223.877,181.781 222.5,175.5 Z"/></g>
<g><path style="opacity:0.675" fill="#aaaaaa" d="M 43.5,168.5 C 45.6689,170.34 47.0023,172.674 47.5,175.5C 46.8826,175.389 46.3826,175.056 46,174.5C 44.6634,178.507 42.8301,182.173 40.5,185.5C 39.4489,184.778 38.7822,183.778 38.5,182.5C 39.3764,182.631 40.0431,182.298 40.5,181.5C 42.0291,178.246 43.3624,174.913 44.5,171.5C 43.8333,170.833 43.1667,170.167 42.5,169.5C 42.6236,168.893 42.9569,168.56 43.5,168.5 Z"/></g>
<g><path style="opacity:0.847" fill="#a6a6a6" d="M 23.5,180.5 C 23.5,181.833 24.1667,182.5 25.5,182.5C 23.6871,185.647 21.0204,187.647 17.5,188.5C 16.8333,187.833 16.1667,187.167 15.5,186.5C 19.658,186.327 22.3247,184.327 23.5,180.5 Z"/></g>
<g><path style="opacity:0.678" fill="#b2b2b2" d="M 97.5,186.5 C 95.8212,186.285 94.8212,186.952 94.5,188.5C 93.2897,186.824 93.7897,185.49 96,184.5C 96.7172,185.044 97.2172,185.711 97.5,186.5 Z"/></g>
<g><path style="opacity:0.51" fill="#b4b4b4" d="M 87.5,185.5 C 88.2625,186.268 89.2625,186.768 90.5,187C 89.9558,187.717 89.2891,188.217 88.5,188.5C 87.9094,187.849 87.2427,187.182 86.5,186.5C 86.6236,185.893 86.9569,185.56 87.5,185.5 Z"/></g>
<g><path style="opacity:0.998" fill="#757575" d="M 97.5,186.5 C 98.5,187.167 99.5,187.833 100.5,188.5C 98.5,189.833 96.5,189.833 94.5,188.5C 94.8212,186.952 95.8212,186.285 97.5,186.5 Z"/></g>
<g><path style="opacity:0.541" fill="#c4c4c4" d="M 103.5,182.5 C 104.167,183.5 104.833,184.5 105.5,185.5C 104.341,187.25 102.674,188.25 100.5,188.5C 99.5,187.833 98.5,187.167 97.5,186.5C 101.241,187.401 103.241,186.068 103.5,182.5 Z"/></g>
<g><path style="opacity:0.165" fill="#c5c5c5" d="M 152.5,183.5 C 152.328,184.492 152.662,185.158 153.5,185.5C 152.089,187.539 150.089,188.539 147.5,188.5C 146.602,187.842 145.602,187.176 144.5,186.5C 144.624,185.893 144.957,185.56 145.5,185.5C 148.447,187.109 150.78,186.442 152.5,183.5 Z"/></g>
<g><path style="opacity:0.992" fill="#8a8a8a" d="M 170.5,171.5 C 171.167,172.5 171.833,173.5 172.5,174.5C 175.567,176.121 178.401,178.121 181,180.5C 180.419,187.388 176.586,190.222 169.5,189C 167.069,187.271 167.403,185.771 170.5,184.5C 172.536,186.345 174.87,186.845 177.5,186C 178.022,185.439 178.355,184.772 178.5,184C 176.296,181.144 173.463,178.977 170,177.5C 169.211,175.288 169.378,173.288 170.5,171.5 Z"/></g>
<g><path style="opacity:0.996" fill="#9a9a9a" d="M 185.5,168.5 C 187.607,169.468 189.941,169.802 192.5,169.5C 192.334,175.176 192.501,180.843 193,186.5C 193.383,185.944 193.883,185.611 194.5,185.5C 195.263,186.268 196.263,186.768 197.5,187C 195.045,188.54 192.379,188.874 189.5,188C 190,187.5 190.5,187 191,186.5C 191.499,181.177 191.666,175.844 191.5,170.5C 188.813,170.664 186.146,170.497 183.5,170C 184.044,169.283 184.711,168.783 185.5,168.5 Z"/></g>
<g><path style="opacity:0.573" fill="#b9b9b9" d="M 234.5,186.5 C 239.66,186.605 239.66,187.272 234.5,188.5C 234.5,187.833 234.5,187.167 234.5,186.5 Z"/></g>
<g><path style="opacity:0.218" fill="#c6c6c6" d="M 257.5,178.5 C 257.5,181.167 257.5,183.833 257.5,186.5C 260.187,186.336 262.854,186.503 265.5,187C 264.756,188.039 263.756,188.539 262.5,188.5C 260.735,187.539 258.735,187.205 256.5,187.5C 256.19,184.287 256.523,181.287 257.5,178.5 Z"/></g>
<g><path style="opacity:0.135" fill="#ececec" d="M 67.5,187.5 C 69.6074,188.468 71.9407,188.802 74.5,188.5C 71.9759,189.8 69.3092,189.8 66.5,188.5C 66.6236,187.893 66.9569,187.56 67.5,187.5 Z"/></g>
<g><path style="opacity:0.255" fill="#d4d4d4" d="M 70.5,186.5 C 73.1873,186.336 75.854,186.503 78.5,187C 77.9558,187.717 77.2891,188.217 76.5,188.5C 73.8822,187.944 71.8822,187.277 70.5,186.5 Z"/></g>
<g><path style="opacity:0.08" fill="#d2d2d2" d="M 51.5,187.5 C 52.5,187.5 53.5,187.5 54.5,187.5C 53.2601,189.985 52.2601,189.985 51.5,187.5 Z"/></g>
<g><path style="opacity:0.065" fill="#efefef" d="M 84.5,187.5 C 85.209,188.404 86.209,188.737 87.5,188.5C 86.2918,189.782 84.9584,189.782 83.5,188.5C 83.6236,187.893 83.9569,187.56 84.5,187.5 Z"/></g>
<g><path style="opacity:0.025" fill="#f4f4f4" d="M 231.5,187.5 C 231.842,188.338 232.508,188.672 233.5,188.5C 232.614,189.776 231.614,189.776 230.5,188.5C 230.624,187.893 230.957,187.56 231.5,187.5 Z"/></g>
<g><path style="opacity:0.224" fill="#e4e4e4" d="M 254.5,185.5 C 254.5,186.5 254.5,187.5 254.5,188.5C 256.833,188.5 259.167,188.5 261.5,188.5C 258.696,189.638 255.696,189.805 252.5,189C 253.085,187.698 253.751,186.531 254.5,185.5 Z"/></g>
<g><path style="opacity:0.843" fill="#bababa" d="M 131.5,187.5 C 131.409,189.698 132.075,190.031 133.5,188.5C 132.577,191.26 130.744,193.26 128,194.5C 128.87,192.098 130.037,189.765 131.5,187.5 Z"/></g>
<g><path style="opacity:0.592" fill="#75c7d5" d="M 71.5,196.5 C 54.9915,196.17 38.6581,196.504 22.5,197.5C 21.7109,197.217 21.0442,196.717 20.5,196C 37.6717,195.172 54.6717,195.338 71.5,196.5 Z"/></g>
<g><path style="opacity:0.577" fill="#ffccab" d="M 90.5,196.5 C 97.6476,195.508 104.981,195.175 112.5,195.5C 112.828,207.678 112.495,219.678 111.5,231.5C 111.5,219.833 111.5,208.167 111.5,196.5C 104.5,196.5 97.5,196.5 90.5,196.5 Z"/></g>
<g><path style="opacity:1" fill="#1899b4" d="M 71.5,196.5 C 74.3388,198.42 77.3388,200.087 80.5,201.5C 80.5,211.833 80.5,222.167 80.5,232.5C 79.1667,232.5 77.8333,232.5 76.5,232.5C 67.5572,231.018 59.2239,227.851 51.5,223C 40.4026,216.066 30.7359,207.566 22.5,197.5C 38.6581,196.504 54.9915,196.17 71.5,196.5 Z"/></g>
<g><path style="opacity:0.999" fill="#ff9656" d="M 90.5,196.5 C 97.5,196.5 104.5,196.5 111.5,196.5C 111.5,208.167 111.5,219.833 111.5,231.5C 116.358,270.444 104.358,302.944 75.5,329C 70.8656,332.812 65.8656,335.979 60.5,338.5C 59.7611,338.631 59.0944,338.464 58.5,338C 59.3805,337.292 60.0472,336.458 60.5,335.5C 64.1949,331.474 67.8616,327.474 71.5,323.5C 72.9063,323.027 73.573,322.027 73.5,320.5C 74.9063,320.027 75.573,319.027 75.5,317.5C 77.8359,312.162 80.1692,306.829 82.5,301.5C 84.2132,300.365 84.8799,298.698 84.5,296.5C 85.9238,294.485 86.5905,292.152 86.5,289.5C 88.7401,274.707 90.0734,259.54 90.5,244C 90.0261,228.132 90.0261,212.299 90.5,196.5 Z"/></g>
<g><path style="opacity:1" fill="#ff9757" d="M 244.5,271.5 C 245.906,271.027 246.573,270.027 246.5,268.5C 254.738,254.308 256.572,239.308 252,223.5C 249.731,218.744 246.897,214.41 243.5,210.5C 243.027,209.094 242.027,208.427 240.5,208.5C 237.618,206.892 234.618,205.559 231.5,204.5C 230.365,202.787 228.698,202.12 226.5,202.5C 223.833,202.167 221.167,201.833 218.5,201.5C 213.5,200.833 208.5,200.167 203.5,199.5C 205.273,198.108 207.273,196.941 209.5,196C 227.167,195.333 244.833,195.333 262.5,196C 277.57,209.675 282.736,226.508 278,246.5C 271.192,263.974 259.026,276.141 241.5,283C 227.501,289.333 212.835,292.833 197.5,293.5C 184.829,293.667 172.162,293.5 159.5,293C 160.056,292.617 160.389,292.117 160.5,291.5C 163.556,286.623 165.389,281.29 166,275.5C 166.811,258.989 167.644,242.489 168.5,226C 167.813,222.905 167.479,219.905 167.5,217C 168.094,209.943 168.76,202.943 169.5,196C 177.167,195.333 184.833,195.333 192.5,196C 193.022,196.561 193.355,197.228 193.5,198C 192.348,219.482 191.181,240.982 190,262.5C 189.454,269.756 186.621,275.923 181.5,281C 197.482,283.333 213.482,283.666 229.5,282C 235.465,279.867 240.465,276.367 244.5,271.5 Z"/></g>
<g><path style="opacity:0.251" fill="#ffddc8" d="M 203.5,199.5 C 208.5,200.167 213.5,200.833 218.5,201.5C 213.238,201.195 208.072,201.529 203,202.5C 199.783,201.186 199.949,200.186 203.5,199.5 Z"/></g>
<g><path style="opacity:0.256" fill="#bbe2ea" d="M 80.5,201.5 C 81.4944,211.987 81.8278,222.654 81.5,233.5C 79.5853,233.784 77.9187,233.451 76.5,232.5C 77.8333,232.5 79.1667,232.5 80.5,232.5C 80.5,222.167 80.5,211.833 80.5,201.5 Z"/></g>
<g><path style="opacity:0.882" fill="#ffc9a6" d="M 226.5,202.5 C 228.698,202.12 230.365,202.787 231.5,204.5C 229.597,204.204 227.93,203.537 226.5,202.5 Z"/></g>
<g><path style="opacity:1" fill="#31a0b8" d="M 157.5,202.5 C 158.756,202.461 159.756,202.961 160.5,204C 159.707,207.411 159.207,210.911 159,214.5C 147.109,221.908 134.442,227.575 121,231.5C 121.361,225.56 121.527,219.56 121.5,213.5C 134.839,213.829 146.839,210.162 157.5,202.5 Z"/></g>
<g><path style="opacity:0.839" fill="#ffc8a2" d="M 240.5,208.5 C 242.027,208.427 243.027,209.094 243.5,210.5C 241.973,210.573 240.973,209.906 240.5,208.5 Z"/></g>
<g><path style="opacity:0.565" fill="#ffcda9" d="M 246.5,268.5 C 246.573,270.027 245.906,271.027 244.5,271.5C 244.427,269.973 245.094,268.973 246.5,268.5 Z"/></g>
<g><path style="opacity:0.918" fill="#ffc29d" d="M 86.5,289.5 C 86.5905,292.152 85.9238,294.485 84.5,296.5C 84.4095,293.848 85.0762,291.515 86.5,289.5 Z"/></g>
<g><path style="opacity:0.516" fill="#ffccab" d="M 160.5,291.5 C 160.389,292.117 160.056,292.617 159.5,293C 172.162,293.5 184.829,293.667 197.5,293.5C 183.673,294.661 169.673,294.827 155.5,294C 157.078,292.906 158.745,292.072 160.5,291.5 Z"/></g>
<g><path style="opacity:0.902" fill="#ffc7a6" d="M 84.5,296.5 C 84.8799,298.698 84.2132,300.365 82.5,301.5C 82.7959,299.597 83.4625,297.93 84.5,296.5 Z"/></g>
<g><path style="opacity:0.525" fill="#ffcdad" d="M 75.5,317.5 C 75.573,319.027 74.9063,320.027 73.5,320.5C 73.427,318.973 74.0937,317.973 75.5,317.5 Z"/></g>
<g><path style="opacity:0.486" fill="#ffcfb2" d="M 73.5,320.5 C 73.573,322.027 72.9063,323.027 71.5,323.5C 71.427,321.973 72.0937,320.973 73.5,320.5 Z"/></g>
<g><path style="opacity:0.871" fill="#ffccad" d="M 60.5,335.5 C 60.0472,336.458 59.3805,337.292 58.5,338C 59.0944,338.464 59.7611,338.631 60.5,338.5C 56.9617,340.769 53.295,342.769 49.5,344.5C 49.1667,344.5 48.8333,344.5 48.5,344.5C 48.9371,342.926 49.9371,341.759 51.5,341C 54.6667,339.311 57.6667,337.478 60.5,335.5 Z"/></g>
</svg>
